# xmcd CD database file
#
# Track frame offsets:
#	150
#	21915
#	36422
#	66047
#	83532
#	99010
#	124587
#	142960
#	162070
#	174690
#	191540
#	206509
#	230057
#	257877
#	272082
#	289257
#
# Disc length: 4077 seconds
#
# Revision: 0
# Processed by: cddbd v1.4PL0 Copyright (c) Steve Scherf et al.
# Submitted via: Feurio! 1.64 - http://www.feurio.com
#
DISCID=dd0feb10
DTITLE=Colin Wilkie - I wish I'd written that song (A tribut to Colin Wilkie)
DYEAR=1996
DGENRE=country
TTITLE0=Hannes Wader - Manche Stadt
TTITLE1=Bill Ramsey - The Incredible Bouncing Benny
TTITLE2=Anne Wylie - Willow and Rue
TTITLE3=Ray Austin - Snowy City Scenery
TTITLE4=Le Clou - Saute Sans Regarder
TTITLE5=Reinhard Mey - Emily-Anne
TTITLE6=Tony Ireland - Down In Your Mines
TTITLE7=Franz-Josef Degenhardt - Weisser Sonntag
TTITLE8=Julian Dawson - Jim Laker Took All Ten
TTITLE9=Joana - Even Oak-Trees Fall
TTITLE10=Liederjan - Wüsste ich nur wie (If I Only Knew How)
TTITLE11=Hartmut Hoffmanns's Kleine Kapelle - The National Seven
TTITLE12=Werner Lämmerhirt - No Words
TTITLE13=Yannick Monot - First Flight Calypso
TTITLE14=Vincent Wilkie and Shirley Hart - Eppelein Von Gailingen
TTITLE15=Colin Wolkie and Peter Ratzenbeck - One More City
EXTD=
EXTT0=
EXTT1=
EXTT2=
EXTT3=
EXTT4=
EXTT5=
EXTT6=
EXTT7=
EXTT8=
EXTT9=
EXTT10=
EXTT11=
EXTT12=
EXTT13=
EXTT14=
EXTT15=
PLAYORDER=
